<svg width="19" height="22" viewBox="0 0 19 22" fill="none" xmlns="http://www.w3.org/2000/svg">
<path d="M10.0459 0C11.0982 0.00132836 12.1175 0.365823 12.9326 1.03125C13.7478 1.69668 14.3085 2.62262 14.5205 3.65332H17.3516C17.5938 3.65332 17.8268 3.74963 17.998 3.9209C18.1691 4.09214 18.2656 4.32433 18.2656 4.56641C18.2656 4.80849 18.1692 5.04068 17.998 5.21191C17.8268 5.38318 17.5938 5.47949 17.3516 5.47949H16.4385V17.3516C16.437 18.5622 15.9556 19.7231 15.0996 20.5791C14.2436 21.4351 13.0827 21.9165 11.8721 21.918H6.39258C5.18211 21.9164 4.02198 21.435 3.16602 20.5791C2.30998 19.7231 1.82762 18.5622 1.82617 17.3516V5.47949H0.913086C0.670938 5.47944 0.438806 5.38314 0.267578 5.21191C0.0963576 5.04067 2.11563e-05 4.80857 0 4.56641C0 4.32425 0.0963886 4.09216 0.267578 3.9209C0.438806 3.74967 0.670938 3.65337 0.913086 3.65332H3.74414C3.95607 2.62278 4.51709 1.69666 5.33203 1.03125C6.14718 0.365819 7.16746 0.00132837 8.21973 0H10.0459ZM10.9561 9.13281C10.7139 9.13286 10.4818 9.22916 10.3105 9.40039C10.1393 9.57162 10.043 9.80375 10.043 10.0459V15.5254C10.043 15.7676 10.1393 16.0006 10.3105 16.1719C10.4818 16.3429 10.714 16.4384 10.9561 16.4385C11.1981 16.4385 11.4303 16.3429 11.6016 16.1719C11.7728 16.0006 11.8691 15.7676 11.8691 15.5254V10.0459C11.8691 9.80375 11.7728 9.57162 11.6016 9.40039C11.4303 9.22923 11.1982 9.13281 10.9561 9.13281ZM7.30762 9.13086C7.06558 9.13091 6.83331 9.22639 6.66211 9.39746C6.49084 9.56873 6.39453 9.80173 6.39453 10.0439V15.5234C6.39459 15.7656 6.49089 15.9977 6.66211 16.1689C6.83334 16.3402 7.06548 16.4365 7.30762 16.4365C7.54974 16.4365 7.78187 16.3401 7.95312 16.1689C8.12435 15.9977 8.22065 15.7656 8.2207 15.5234V10.0439C8.2207 9.80173 8.1244 9.56873 7.95312 9.39746C7.7819 9.22646 7.54963 9.13086 7.30762 9.13086ZM8.21973 1.82617C7.65325 1.82686 7.10025 2.00307 6.6377 2.33008C6.17521 2.65708 5.8253 3.11957 5.63574 3.65332H12.6299C12.4403 3.11951 12.0895 2.65709 11.627 2.33008C11.1645 2.0032 10.6123 1.82686 10.0459 1.82617H8.21973Z" fill="#EE3131"/>
</svg>
