<svg width="219" height="144" viewBox="0 0 219 144" fill="none" xmlns="http://www.w3.org/2000/svg">
<path d="M15 143.84V127.964H17.9495V141.347H26.2499V143.843H15V143.84Z" fill="#231F23"/>
<path d="M33.7567 144C32.5174 144 31.4124 143.732 30.4445 143.195C29.4765 142.658 28.7142 141.921 28.1545 140.982C27.5949 140.045 27.3151 138.978 27.3151 137.784C27.3151 136.573 27.5949 135.505 28.1545 134.575C28.7142 133.644 29.4765 132.916 30.4445 132.385C31.4124 131.856 32.5146 131.591 33.7567 131.591C35.013 131.591 36.1266 131.856 37.1031 132.385C38.0796 132.913 38.842 133.641 39.393 134.563C39.9441 135.485 40.2211 136.559 40.2211 137.784C40.2211 138.978 39.9441 140.045 39.393 140.982C38.842 141.919 38.0767 142.658 37.1031 143.195C36.1266 143.732 35.0101 144 33.7567 144ZM33.7567 141.573C34.4534 141.573 35.073 141.422 35.6155 141.119C36.1608 140.816 36.5863 140.379 36.8975 139.803C37.2059 139.229 37.3629 138.555 37.3629 137.784C37.3629 136.999 37.2087 136.322 36.8975 135.754C36.5863 135.186 36.1608 134.752 35.6155 134.449C35.0701 134.146 34.4591 133.995 33.7795 133.995C33.0828 133.995 32.4689 134.146 31.9321 134.449C31.3953 134.752 30.967 135.186 30.6501 135.754C30.3331 136.322 30.1732 136.999 30.1732 137.784C30.1732 138.555 30.3331 139.229 30.6501 139.803C30.967 140.377 31.3953 140.816 31.9321 141.119C32.4661 141.422 33.0742 141.573 33.7567 141.573Z" fill="#231F23"/>
<path d="M48.4987 144C47.2595 144 46.1545 143.732 45.1866 143.195C44.2186 142.658 43.4562 141.921 42.8966 140.982C42.337 140.045 42.0571 138.978 42.0571 137.784C42.0571 136.573 42.337 135.505 42.8966 134.575C43.4562 133.644 44.2186 132.916 45.1866 132.385C46.1545 131.856 47.2567 131.591 48.4987 131.591C49.7551 131.591 50.8686 131.856 51.8452 132.385C52.8217 132.913 53.584 133.641 54.1351 134.563C54.6862 135.485 54.9632 136.559 54.9632 137.784C54.9632 138.978 54.6862 140.045 54.1351 140.982C53.584 141.919 52.8188 142.658 51.8452 143.195C50.8686 143.732 49.7522 144 48.4987 144ZM48.4987 141.573C49.1954 141.573 49.815 141.422 50.3575 141.119C50.9029 140.816 51.3283 140.379 51.6396 139.803C51.9479 139.229 52.105 138.555 52.105 137.784C52.105 136.999 51.9508 136.322 51.6396 135.754C51.3283 135.186 50.9029 134.752 50.3575 134.449C49.8122 134.146 49.2011 133.995 48.5216 133.995C47.8249 133.995 47.211 134.146 46.6742 134.449C46.1374 134.752 45.7091 135.186 45.3921 135.754C45.0752 136.322 44.9153 136.999 44.9153 137.784C44.9153 138.555 45.0752 139.229 45.3921 139.803C45.7091 140.377 46.1374 140.816 46.6742 141.119C47.2081 141.422 47.8192 141.573 48.4987 141.573Z" fill="#231F23"/>
<path d="M57.7983 143.84V127.011H60.6336V143.84H57.7983ZM60.1111 141.142L60.1796 137.581L66.507 131.731H69.9105L64.534 137.13L63.0378 138.378L60.1111 141.142ZM66.9381 143.84L62.5153 138.375L64.3084 136.108L70.3874 143.843H66.9381V143.84Z" fill="#231F23"/>
<path d="M69.8878 143.84L77.0318 127.964H79.9357L87.1025 143.84H84.0188L77.8713 129.529H79.0505L72.9259 143.84H69.8878ZM73.1743 140.168L73.9681 137.855H82.5426L83.3364 140.168H73.1743Z" fill="#231F23"/>
<path d="M88.9612 143.84V127.011H91.7966V143.84H88.9612Z" fill="#231F23"/>
<path d="M97.059 129.735C96.5307 129.735 96.0939 129.569 95.7541 129.235C95.4143 128.904 95.243 128.501 95.243 128.033C95.243 127.55 95.4143 127.145 95.7541 126.819C96.0939 126.494 96.5279 126.331 97.059 126.331C97.5872 126.331 98.0241 126.485 98.3638 126.797C98.7036 127.108 98.8749 127.496 98.8749 127.964C98.8749 128.464 98.7093 128.884 98.3753 129.224C98.0412 129.563 97.6015 129.735 97.059 129.735ZM95.6285 143.84V131.731H98.4638V143.843H95.6285V143.84Z" fill="#231F23"/>
<path d="M102.298 143.84V127.011H105.134V143.84H102.298ZM104.611 141.142L104.68 137.581L111.007 131.731H114.411L109.034 137.13L107.538 138.378L104.611 141.142ZM111.438 143.84L107.015 138.375L108.806 136.108L114.885 143.843H111.438V143.84Z" fill="#231F23"/>
<path d="M122.009 144C120.664 144 119.487 143.732 118.482 143.195C117.477 142.658 116.698 141.921 116.147 140.982C115.596 140.045 115.319 138.978 115.319 137.784C115.319 136.573 115.587 135.505 116.124 134.575C116.661 133.644 117.4 132.916 118.345 132.385C119.29 131.856 120.367 131.591 121.578 131.591C122.757 131.591 123.808 131.848 124.73 132.362C125.652 132.876 126.377 133.601 126.906 134.538C127.434 135.474 127.699 136.579 127.699 137.85C127.699 137.97 127.697 138.107 127.688 138.258C127.679 138.409 127.668 138.552 127.654 138.689H117.563V136.807H126.16L125.05 137.399C125.064 136.705 124.921 136.091 124.618 135.563C124.316 135.034 123.905 134.617 123.382 134.315C122.86 134.012 122.26 133.861 121.578 133.861C120.881 133.861 120.273 134.012 119.753 134.315C119.231 134.617 118.822 135.037 118.528 135.574C118.234 136.111 118.086 136.742 118.086 137.467V137.921C118.086 138.646 118.251 139.289 118.585 139.848C118.916 140.408 119.388 140.839 119.99 141.142C120.595 141.445 121.289 141.596 122.077 141.596C122.757 141.596 123.371 141.49 123.913 141.279C124.459 141.068 124.941 140.734 125.364 140.28L126.883 142.027C126.337 142.661 125.655 143.149 124.83 143.489C124.007 143.829 123.065 144 122.009 144Z" fill="#231F23"/>
<path d="M134.699 143.5V127.625H137.126L144.068 139.214H142.797L149.624 127.625H152.051L152.074 143.5H149.284L149.261 132.002H149.85L144.045 141.687H142.728L136.832 132.002H137.512V143.5H134.699Z" fill="#231F23"/>
<path d="M159.738 143.66C158.83 143.66 158.036 143.506 157.356 143.195C156.677 142.883 156.151 142.455 155.78 141.901C155.409 141.35 155.223 140.725 155.223 140.031C155.223 139.351 155.386 138.738 155.712 138.195C156.037 137.65 156.568 137.219 157.311 136.902C158.053 136.585 159.035 136.425 160.26 136.425H163.775V138.306H160.463C159.495 138.306 158.844 138.461 158.513 138.772C158.179 139.083 158.013 139.463 158.013 139.917C158.013 140.431 158.216 140.839 158.624 141.142C159.032 141.444 159.601 141.596 160.326 141.596C161.02 141.596 161.645 141.436 162.196 141.119C162.747 140.802 163.144 140.334 163.387 139.714L163.864 141.416C163.592 142.127 163.104 142.678 162.402 143.072C161.702 143.463 160.811 143.66 159.738 143.66ZM163.55 143.5V141.05L163.39 140.528V136.242C163.39 135.411 163.141 134.763 162.642 134.303C162.142 133.844 161.385 133.612 160.374 133.612C159.695 133.612 159.024 133.718 158.367 133.929C157.71 134.141 157.154 134.437 156.7 134.814L155.589 132.75C156.24 132.25 157.014 131.876 157.913 131.628C158.813 131.379 159.746 131.254 160.714 131.254C162.467 131.254 163.826 131.674 164.786 132.513C165.745 133.352 166.225 134.649 166.225 136.402V143.5H163.55Z" fill="#231F23"/>
<path d="M168.244 133.658V131.391H176.318V133.658H168.244ZM174.414 143.66C173.083 143.66 172.055 143.318 171.33 142.629C170.605 141.941 170.242 140.925 170.242 139.58V128.715H173.078V139.511C173.078 140.085 173.226 140.531 173.52 140.851C173.814 141.167 174.228 141.327 174.757 141.327C175.391 141.327 175.922 141.162 176.344 140.828L177.138 142.846C176.804 143.118 176.398 143.323 175.913 143.457C175.428 143.592 174.928 143.66 174.414 143.66Z" fill="#231F23"/>
<path d="M184.619 143.66C183.348 143.66 182.218 143.392 181.227 142.855C180.236 142.318 179.462 141.582 178.903 140.642C178.343 139.706 178.063 138.638 178.063 137.444C178.063 136.234 178.343 135.166 178.903 134.235C179.462 133.304 180.236 132.576 181.227 132.045C182.218 131.517 183.348 131.251 184.619 131.251C185.798 131.251 186.837 131.488 187.737 131.965C188.636 132.442 189.322 133.141 189.79 134.064L187.611 135.334C187.249 134.76 186.806 134.335 186.283 134.064C185.761 133.792 185.198 133.655 184.593 133.655C183.896 133.655 183.271 133.807 182.711 134.109C182.152 134.412 181.712 134.846 181.395 135.414C181.078 135.982 180.918 136.659 180.918 137.444C180.918 138.229 181.078 138.906 181.395 139.474C181.712 140.043 182.152 140.477 182.711 140.779C183.271 141.082 183.899 141.233 184.593 141.233C185.198 141.233 185.761 141.096 186.283 140.825C186.806 140.554 187.249 140.128 187.611 139.554L189.79 140.825C189.322 141.733 188.636 142.433 187.737 142.924C186.837 143.415 185.798 143.66 184.619 143.66Z" fill="#231F23"/>
<path d="M192.128 143.5V126.671H194.964V134.654L194.353 133.655C194.775 132.884 195.392 132.29 196.2 131.873C197.008 131.457 197.942 131.251 199.001 131.251C199.969 131.251 200.834 131.439 201.599 131.819C202.362 132.196 202.964 132.776 203.401 133.555C203.841 134.335 204.058 135.337 204.058 136.562V143.503H201.223V136.924C201.223 135.851 200.968 135.049 200.463 134.52C199.955 133.992 199.25 133.726 198.342 133.726C197.676 133.726 197.085 133.864 196.571 134.135C196.057 134.406 195.66 134.812 195.381 135.348C195.101 135.885 194.961 136.562 194.961 137.378V143.503H192.128V143.5Z" fill="#231F23"/>
<path d="M42.0885 0.123408C47.6421 -0.607553 54.2093 1.97651 57.9869 6.07674C59.1404 7.33023 60.8679 10.8994 61.4904 11.3191C62.6439 12.0929 67.0953 12.5697 68.9228 13.215C80.1784 17.1868 88.1676 24.6591 96.1682 33.1937C97.7814 34.9154 106.387 44.4208 106.353 45.7514C106.322 46.9135 97.9842 54.6828 96.745 56.5102C87.9734 47.5731 78.9221 33.2394 66.8698 28.6766C59.209 25.7756 61.4504 27.6201 57.3844 31.7375C52.2962 36.8885 43.3734 38.1676 36.8233 35.4037C34.0279 34.2216 32.0835 31.866 29.4166 30.5497C8.47856 46.1425 10.9456 80.2521 35.4242 91.0253C53.4355 98.9516 68.5801 91.6734 81.3091 78.9844C97.0333 63.3144 110.87 44.7891 126.469 29.1134C143.378 12.1186 165.144 3.93525 188.558 13.6804C222.49 27.8057 229.603 75.3296 201.09 98.4862C199.631 99.6712 193.406 103.098 192.961 103.766C192.361 104.662 191.896 107.675 191.005 109.391C185.106 120.769 169.201 122.051 161.181 112.186C160.347 111.158 158.742 107.852 158.246 107.543C157.258 106.935 152.524 106.401 150.696 105.764C133.756 99.8539 123.696 85.9828 112.212 73.1395L122.397 61.7811C132.396 73.2395 142.661 89.6947 158.825 91.8219C165.155 80.532 180.206 78.7131 188.857 88.4869C220.155 64.8763 198.637 17.3238 159.405 25.8983C144.24 29.2134 132.014 45.3973 121.809 56.5159C97.5159 82.979 73.4227 122.716 30.7615 105.602C-4.20475 91.5763 -10.6378 44.0667 18.0582 20.3933C19.9826 18.8057 24.9594 16.3759 25.8988 15.4079C26.7269 14.5542 27.7405 10.5796 28.7142 8.89494C31.3896 4.25505 36.7548 0.825816 42.0885 0.123408ZM43.8474 3.63259C24.6539 4.01806 25.4534 33.9275 44.8581 33.2422C63.6004 32.5798 63.5719 3.23571 43.8474 3.63259ZM173.267 85.8257C151.59 88.4583 160.584 122.539 180.988 113.951C195.479 107.852 190.194 83.7699 173.267 85.8257Z" fill="url(#paint0_linear_970_2079)"/>
<path d="M63.0018 76.1406H34.4343C34.54 58.7517 62.148 59.0572 63.0018 76.1406Z" fill="#6054C8"/>
<path d="M47.7086 45.3545C55.6349 44.2666 59.8665 55.271 52.6997 59.7167C42.0436 66.3296 36.1988 46.9335 47.7086 45.3545Z" fill="#6054C8"/>
<path d="M186.925 74.8473H158.358C158.461 57.4584 186.069 57.7639 186.925 74.8473Z" fill="url(#paint1_linear_970_2079)"/>
<path d="M171.632 44.061C179.559 42.9732 183.79 53.9775 176.623 58.4233C165.964 65.0362 160.12 45.64 171.632 44.061Z" fill="url(#paint2_linear_970_2079)"/>
<path d="M43.8082 3.63265C63.5327 3.23576 63.5613 32.5798 44.819 33.2423C25.4142 33.9247 24.6147 4.01812 43.8082 3.63265ZM43.7968 8.24113C37.0325 8.82932 38.6915 20.005 46.1238 17.0155C50.7809 15.1424 48.6594 7.81854 43.7968 8.24113ZM52.6854 27.3717C52.12 16.6358 35.6163 16.2018 35.779 27.3717H52.6854Z" fill="white"/>
<path d="M173.228 85.8258C190.155 83.7699 195.437 107.852 180.949 113.951C160.545 122.542 151.554 88.4584 173.228 85.8258ZM173.799 90.4399C168.483 91.525 169.742 100.836 175.858 99.5655C181.455 98.4063 179.758 89.2236 173.799 90.4399ZM183.282 109.579C184.364 101.687 173.023 98.6261 168.386 103.72C167.495 104.699 165.222 109.579 167.249 109.579H183.282Z" fill="white"/>
<path d="M52.6855 27.3717H35.7791C35.6164 16.2017 52.1201 16.6357 52.6855 27.3717Z" fill="#4965BD"/>
<path d="M43.7968 8.24108C48.6622 7.81849 50.7809 15.1424 46.1239 17.0155C38.6915 20.005 37.0297 8.82927 43.7968 8.24108Z" fill="#4965BD"/>
<path d="M183.282 109.579H167.249C165.222 109.579 167.492 104.699 168.386 103.72C173.023 98.626 184.364 101.687 183.282 109.579Z" fill="#4757BD"/>
<path d="M173.799 90.44C179.758 89.2236 181.452 98.4035 175.858 99.5656C169.745 100.836 168.483 91.5278 173.799 90.44Z" fill="#4757BD"/>
<defs>
<linearGradient id="paint0_linear_970_2079" x1="-0.941436" y1="59.4159" x2="215.649" y2="59.4159" gradientUnits="userSpaceOnUse">
<stop stop-color="#5D51C9"/>
<stop offset="0.8593" stop-color="#3D98EE"/>
<stop offset="1" stop-color="#37A4F4"/>
</linearGradient>
<linearGradient id="paint1_linear_970_2079" x1="-0.980509" y1="68.3828" x2="215.61" y2="68.3828" gradientUnits="userSpaceOnUse">
<stop stop-color="#5D51C9"/>
<stop offset="0.188" stop-color="#5A58CD"/>
<stop offset="0.4654" stop-color="#516CD7"/>
<stop offset="0.7966" stop-color="#428CE8"/>
<stop offset="1" stop-color="#37A4F4"/>
</linearGradient>
<linearGradient id="paint2_linear_970_2079" x1="-0.980479" y1="51.8891" x2="215.61" y2="51.8891" gradientUnits="userSpaceOnUse">
<stop stop-color="#5D51C9"/>
<stop offset="0.188" stop-color="#5A58CD"/>
<stop offset="0.4654" stop-color="#516CD7"/>
<stop offset="0.7966" stop-color="#428CE8"/>
<stop offset="1" stop-color="#37A4F4"/>
</linearGradient>
</defs>
</svg>
